<svg xmlns="http://www.w3.org/2000/svg" version="1.1" xmlns:xlink="http://www.w3.org/1999/xlink" xmlns:svgjs="http://svgjs.dev/svgjs" width="100%" height="100%" viewBox="0 0 1000 600"><rect width="1000" height="600" x="0" y="0" fill="#ffffff"/><g><circle r="166.66666666666666" cx="371.8162485758463" cy="394.0384872400574" fill="#8aaae5" transform="matrix(0.6093113363742704,0,0,0.6093113363742703,0,59.90785605398389)"/><path d="M362.08168950460527 319.03848267228057L412.1683617380571 469.038477712761L392.9917643222644 469.038477712761L389.48147191394975 454.0547295624552L381.0632706754916 428.3125852348147L347.3579630141745 427.6300283776425L316.93542880878135 428.3125852348147L307.8021680056665 453.1121510454077L304.0643566449611 469.038477712761L285.34279713394994 469.038477712761L340.3373781975454 319.03848267228057L362.08168950460527 319.03848267228057ZM348.9830983883943 412.87379917972737L375.8953401854729 412.41876127494584L351.5508122796614 338.4425990404641L349.9256769054417 338.4425990404641L322.78591615597236 412.41876127494584L348.9830983883943 412.87379917972737ZM458.2897036584128 319.03848267228057L457.11960618897467 422.23457893523295L458.0296819985377 469.038477712761L439.0806035351357 469.038477712761L440.2507010045739 423.8597143094527L439.0806035351357 319.03848267228057L458.2897036584128 319.03848267228057Z " fill="#ffffff" transform="matrix(0.6093113363742704,0,0,0.6093113363742703,0,59.90785605398389)"/><path d="M715.008730726434 331.91994177428126L716.2704676536912 333.59247677087814L715.008730726434 346.708672270506L691.3291563009312 345.44693534324875L677.596763697294 345.44693534324875L676.9805665932846 425.08307535664943L677.596763697294 467.3365910601487L660.4899583812245 467.3365910601487L661.7516953084818 426.5502113185765L660.6953574158943 345.44693534324875L646.962964812257 345.44693534324875L622.8725923174147 346.708672270506L621.8162544248273 345.00679455467065L623.1073340713231 331.91994177428126L715.008730726434 331.91994177428126ZM796.3467484556701 467.3365910601487L797.4030863482576 401.63824268505505Q797.6084853829273 392.9821405096854 793.3831338125774 388.11124911608755Q789.1577822422274 383.24035772248976 780.9124781361974 383.24035772248976L780.9124781361974 383.24035772248976Q766.9746864978904 383.24035772248976 752.3913550363354 398.26382997262283L752.3913550363354 398.26382997262283L751.9805569669959 424.87767632197966L753.0368948595833 467.3365910601487L736.3408876128534 467.3365910601487L737.6026245401107 426.1394132492369L736.5462866475232 320.50562399048874L753.2422938942531 319.0384880285617L752.3913550363354 384.2966956150772L753.6530919635927 384.2966956150772Q766.7692874632205 372.67697879661495 780.5016800668578 369.30256608418273L780.5016800668578 369.30256608418273Q796.5521474903398 369.30256608418273 804.7974515963699 376.6969313322951Q813.0134129831614 384.09129658040746 812.8080139484916 397.82368918404467L812.8080139484916 397.82368918404467L812.3972158791521 425.2884743913192L813.2481547370697 467.3365910601487L796.3467484556701 467.3365910601487ZM913.6002545328805 418.09950817787666L852.948853866816 418.334249931785L852.948853866816 418.74504800112453Q852.948853866816 436.49739314044194 860.9887589381763 446.0044341737293Q868.9993212902979 455.51147520701664 883.7880517865227 455.51147520701664L883.7880517865227 455.51147520701664Q891.182417034635 455.51147520701664 898.5767822827474 453.07602951021767Q905.9711475308598 450.6405838134188 912.103775851715 446.20983320839906L912.103775851715 446.20983320839906L913.8056535675503 447.47157013565635L911.2528369937972 461.8495025625415Q896.4641064975724 469.0384687759841 881.6753760013478 469.0384687759841L881.6753760013478 469.0384687759841Q860.9887589381763 469.0384687759841 849.1636430850441 455.8342451186406Q837.3091845126735 442.6300214612971 837.3091845126735 419.5959868590423L837.3091845126735 419.5959868590423Q837.3091845126735 396.3565532221176 849.1636430850441 382.6241606184804Q860.9887589381763 368.89176801484314 881.0591788973384 368.89176801484314L881.0591788973384 368.89176801484314Q897.960585178738 368.89176801484314 907.2622271773556 378.4868372058461Q916.5345264567346 388.11124911608755 916.5345264567346 405.2180544321571L916.5345264567346 405.2180544321571Q916.5345264567346 410.9398846836726 915.7129303180554 415.9868323927017L915.7129303180554 415.9868323927017L913.6002545328805 418.09950817787666ZM881.0591788973384 380.7168838679752Q870.4957999714635 380.7168838679752 863.4242046349751 387.58308016979385Q856.3232665792482 394.44927647161245 854.0051917594034 406.9199321479925L854.0051917594034 406.9199321479925L900.6894580679225 406.0689932900748L901.1295988565005 403.1053786469821Q901.1295988565005 392.3366006864375 895.9359375512788 386.5267422772063Q890.7716189652955 380.7168838679752 881.0591788973384 380.7168838679752L881.0591788973384 380.7168838679752ZM1043.9406133904804 331.91994177428126L1043.0896745325626 425.08307535664943L1043.5298153211406 467.3365910601487L1026.8338080744109 467.3365910601487L1027.6847469323286 426.5502113185765L1027.4500051784203 406.27439232474455L989.861981833849 406.0689932900748L955.4136294478017 406.27439232474455L955.2082304131319 425.08307535664943L955.8537702363798 467.3365910601487L939.1577629896499 467.3365910601487L939.7739600936593 426.5502113185765L939.1577629896499 331.91994177428126L956.0591692710495 331.91994177428126L955.4136294478017 391.92580261709793L991.329117795776 392.1312016517677L1027.4500051784203 391.92580261709793L1026.8338080744109 331.91994177428126L1043.9406133904804 331.91994177428126ZM1080.9124396310422 467.3365910601487L1081.76337848896 426.3448122839067L1081.117838665712 371.6206409040275L1097.4030478431023 370.1535049421004L1096.9629070545243 424.87767632197966L1097.4030478431023 467.3365910601487L1080.9124396310422 467.3365910601487ZM1089.5685418064118 327.25444941535324Q1093.7938933767618 327.25444941535324 1096.3467099505149 329.8072659891063Q1098.8701838050292 332.33073984362085 1098.8701838050292 336.76149044864053L1098.8701838050292 336.76149044864053Q1098.8701838050292 341.4269828075686 1096.2293390735606 344.15585569675295Q1093.588494342092 346.9140713051758 1088.9523447024026 346.9140713051758L1088.9523447024026 346.9140713051758Q1084.4922513781441 346.9140713051758 1082.0861484005839 344.3905974506613Q1079.6507027037849 341.83778087690814 1079.6507027037849 337.2016312372187L1079.6507027037849 337.2016312372187Q1079.6507027037849 332.77088063219895 1082.2915474352535 330.0126650237761Q1084.9323921667224 327.25444941535324 1089.5685418064118 327.25444941535324L1089.5685418064118 327.25444941535324ZM1176.188248998585 370.3589039767702Q1178.7410655723384 370.3589039767702 1181.6753374961925 370.7990447653483L1181.6753374961925 370.7990447653483L1181.6753374961925 387.0549112235001L1179.797403464926 387.700451046748Q1176.188248998585 386.6441131541605 1171.9628974282355 386.6441131541605L1171.9628974282355 386.6441131541605Q1165.008672968701 386.6441131541605 1159.19881455947 392.21922980948335Q1153.3889561502388 397.82368918404467 1147.6671258987233 410.08894582575493L1147.6671258987233 410.08894582575493L1147.4617268640536 424.87767632197966L1148.518064756641 467.3365910601487L1131.822057509911 467.3365910601487L1132.8783954024984 426.3448122839067L1132.027456544581 371.6206409040275L1147.8725249333932 370.1535049421004L1147.6671258987233 390.01852586659277L1148.9288628259806 390.01852586659277Q1154.856092112166 379.45514694071795 1162.0450583256084 374.90702545874404Q1169.234024539051 370.3589039767702 1176.188248998585 370.3589039767702L1176.188248998585 370.3589039767702ZM1268.0896456536962 418.09950817787666L1207.46758770687 418.334249931785L1207.46758770687 418.74504800112453Q1207.46758770687 436.49739314044194 1215.478150058992 446.0044341737293Q1223.5180551303522 455.51147520701664 1238.306785626577 455.51147520701664L1238.306785626577 455.51147520701664Q1245.7011508746893 455.51147520701664 1253.0955161228017 453.07602951021767Q1260.4898813709142 450.6405838134188 1266.6225096917692 446.20983320839906L1266.6225096917692 446.20983320839906L1268.295044688366 447.47157013565635L1265.7715708338515 461.8495025625415Q1250.9828403376268 469.0384687759841 1236.194109841402 469.0384687759841L1236.194109841402 469.0384687759841Q1215.478150058992 469.0384687759841 1203.6530342058597 455.8342451186406Q1191.8279183527277 442.6300214612971 1191.8279183527277 419.5959868590423L1191.8279183527277 419.5959868590423Q1191.8279183527277 396.3565532221176 1203.6530342058597 382.6241606184804Q1215.478150058992 368.89176801484314 1235.548570018154 368.89176801484314L1235.548570018154 368.89176801484314Q1252.4499762995538 368.89176801484314 1261.7516182981713 378.4868372058461Q1271.0532602967887 388.11124911608755 1271.0532602967887 405.2180544321571L1271.0532602967887 405.2180544321571Q1271.0532602967887 410.9398846836726 1270.202321438871 415.9868323927017L1270.202321438871 415.9868323927017L1268.0896456536962 418.09950817787666ZM1235.548570018154 380.7168838679752Q1224.9851910922791 380.7168838679752 1217.9135957557908 387.58308016979385Q1210.8420004193024 394.44927647161245 1208.5239255994577 406.9199321479925L1208.5239255994577 406.9199321479925L1255.2081919079765 406.0689932900748L1255.6189899773162 403.1053786469821Q1255.6189899773162 392.3366006864375 1250.4546713913328 386.5267422772063Q1245.2903528053498 380.7168838679752 1235.548570018154 380.7168838679752L1235.548570018154 380.7168838679752ZM1349.2222643482623 331.91994177428126L1394.4393946948544 467.3365910601487L1377.0978476248765 467.3365910601487L1373.928833947114 453.80959749118125L1366.329069664332 430.57016385425663L1335.9006698139647 429.9539667502473L1308.4358846066903 430.57016385425663L1300.2199232198986 452.9586586332635L1296.816167788228 467.3365910601487L1279.9147615068282 467.3365910601487L1329.5626424584398 331.91994177428126L1349.2222643482623 331.91994177428126ZM1337.3971484951303 416.6323722159496L1361.6929200246423 416.22157414661L1339.7152233149752 349.43754515969033L1338.248087353048 349.43754515969033L1313.7175740696275 416.22157414661L1337.3971484951303 416.6323722159496ZM1436.0473705751058 331.91994177428126L1434.9910326825182 425.08307535664943L1435.841971540436 467.3365910601487L1418.7351662243664 467.3365910601487L1419.791504116954 426.5502113185765L1418.7351662243664 331.91994177428126L1436.0473705751058 331.91994177428126Z " fill="#8aaae5" transform="matrix(0.6093113363742704,0,0,0.6093113363742703,0,59.90785605398389)"/></g></svg>